# xmcd
#
# Track frame offsets:
#	182
#	12922
#	24307
#	34900
#	45727
#	56237
#	69852
#	84090
#	96250
#	111170
#
# Disc length: 1656 seconds
#
# Revision: 1
# Processed by: cddbd v1.5.2PL0 Copyright (c) Steve Scherf et al.
# Submitted via: audiograbber 1.83.01
#
DISCID=7606760a
DTITLE=Bo Diddley - I'm the boss
DYEAR=1900
DGENRE=
TTITLE0=Cracklin'
TTITLE1=Rockin' Bo
TTITLE2=Dancin' Girl
TTITLE3=Let The Kids Dance
TTITLE4=Mess Around
TTITLE5=Somebody's Crying
TTITLE6=Hong Kong
TTITLE7=Can I Go Home With You
TTITLE8=I'm Going Home
TTITLE9=Rhyme Song
EXTD=
EXTT0=
EXTT1=
EXTT2=
EXTT3=
EXTT4=
EXTT5=
EXTT6=
EXTT7=
EXTT8=
EXTT9=
PLAYORDER=
